<?xml version="1.0" encoding="UTF-8" standalone="no"?>
<!DOCTYPE svg PUBLIC "-//W3C//DTD SVG 1.1//EN"
 "http://www.w3.org/Graphics/SVG/1.1/DTD/svg11.dtd">
<!-- Generated by graphviz version 2.47.0 (20210316.0004)
 -->
<!-- Title: dependencies Pages: 1 -->
<svg width="2504pt" height="211pt"
 viewBox="0.00 0.00 2504.00 211.00" xmlns="http://www.w3.org/2000/svg" xmlns:xlink="http://www.w3.org/1999/xlink">
<g id="graph0" class="graph" transform="scale(1 1) rotate(0) translate(4 207)">
<title>dependencies</title>
<polygon fill="white" stroke="transparent" points="-4,4 -4,-207 2500,-207 2500,4 -4,4"/>
<text text-anchor="start" x="1227.01" y="-42.4" font-family="Times-12" font-weight="bold" font-size="14.00">Legend</text>
<polygon fill="#ffffb3" stroke="transparent" points="1014,-10 1014,-30 1034,-30 1034,-10 1014,-10"/>
<text text-anchor="start" x="1037.63" y="-15.4" font-family="Times-12" font-size="14.00"> &#160;Declarations</text>
<polygon fill="#8dd3c7" stroke="transparent" points="1127,-10 1127,-30 1147,-30 1147,-10 1127,-10"/>
<text text-anchor="start" x="1150.73" y="-15.4" font-family="Times-12" font-size="14.00"> &#160;Module</text>
<polygon fill="#80b1d3" stroke="transparent" points="1213,-10 1213,-30 1233,-30 1233,-10 1213,-10"/>
<text text-anchor="start" x="1236.78" y="-15.4" font-family="Times-12" font-size="14.00"> &#160;Bootstrap</text>
<polygon fill="#fdb462" stroke="transparent" points="1310,-10 1310,-30 1330,-30 1330,-10 1310,-10"/>
<text text-anchor="start" x="1333.67" y="-15.4" font-family="Times-12" font-size="14.00"> &#160;Providers</text>
<polygon fill="#fb8072" stroke="transparent" points="1406,-10 1406,-30 1426,-30 1426,-10 1406,-10"/>
<text text-anchor="start" x="1429.73" y="-15.4" font-family="Times-12" font-size="14.00"> &#160;Exports</text>
<g id="clust1" class="cluster">
<title>cluster_AppModule</title>
<polygon fill="none" stroke="black" stroke-dasharray="1,5" points="8,-70 8,-195 2488,-195 2488,-70 8,-70"/>
</g>
<g id="clust6" class="cluster">
<title>cluster_AppModule_providers</title>
<polygon fill="none" stroke="black" points="16,-78 16,-130 2480,-130 2480,-78 16,-78"/>
</g>
<!-- AppService -->
<g id="node1" class="node">
<title>AppService</title>
<ellipse fill="#fdb462" stroke="black" cx="2415" cy="-104" rx="56.74" ry="18"/>
<text text-anchor="middle" x="2415" y="-99.8" font-family="Times,serif" font-size="14.00">AppService</text>
</g>
<!-- AppModule -->
<g id="node16" class="node">
<title>AppModule</title>
<polygon fill="#8dd3c7" stroke="black" points="1253.66,-187 1250.66,-191 1229.66,-191 1226.66,-187 1170.34,-187 1170.34,-151 1253.66,-151 1253.66,-187"/>
<text text-anchor="middle" x="1212" y="-164.8" font-family="Times,serif" font-size="14.00">AppModule</text>
</g>
<!-- AppService&#45;&gt;AppModule -->
<g id="edge1" class="edge">
<title>AppService&#45;&gt;AppModule</title>
<path fill="none" stroke="black" d="M2415,-122.32C2415,-145.66 2415,-183 2415,-183 2415,-183 1263.76,-183 1263.76,-183"/>
<polygon fill="black" stroke="black" points="1263.76,-179.5 1253.76,-183 1263.76,-186.5 1263.76,-179.5"/>
</g>
<!-- AutorService -->
<g id="node2" class="node">
<title>AutorService</title>
<ellipse fill="#fdb462" stroke="black" cx="2278" cy="-104" rx="62.54" ry="18"/>
<text text-anchor="middle" x="2278" y="-99.8" font-family="Times,serif" font-size="14.00">AutorService</text>
</g>
<!-- AutorService&#45;&gt;AppModule -->
<g id="edge2" class="edge">
<title>AutorService&#45;&gt;AppModule</title>
<path fill="none" stroke="black" d="M2278,-122.29C2278,-144.21 2278,-178 2278,-178 2278,-178 1263.79,-178 1263.79,-178"/>
<polygon fill="black" stroke="black" points="1263.79,-174.5 1253.79,-178 1263.79,-181.5 1263.79,-174.5"/>
</g>
<!-- BuscadorService -->
<g id="node3" class="node">
<title>BuscadorService</title>
<ellipse fill="#fdb462" stroke="black" cx="2121" cy="-104" rx="76.42" ry="18"/>
<text text-anchor="middle" x="2121" y="-99.8" font-family="Times,serif" font-size="14.00">BuscadorService</text>
</g>
<!-- BuscadorService&#45;&gt;AppModule -->
<g id="edge3" class="edge">
<title>BuscadorService&#45;&gt;AppModule</title>
<path fill="none" stroke="black" d="M2121,-122.03C2121,-142.77 2121,-174 2121,-174 2121,-174 1263.72,-174 1263.72,-174"/>
<polygon fill="black" stroke="black" points="1263.72,-170.5 1253.72,-174 1263.72,-177.5 1263.72,-170.5"/>
</g>
<!-- CambioContraService -->
<g id="node4" class="node">
<title>CambioContraService</title>
<ellipse fill="#fdb462" stroke="black" cx="1930" cy="-104" rx="96.71" ry="18"/>
<text text-anchor="middle" x="1930" y="-99.8" font-family="Times,serif" font-size="14.00">CambioContraService</text>
</g>
<!-- CambioContraService&#45;&gt;AppModule -->
<g id="edge4" class="edge">
<title>CambioContraService&#45;&gt;AppModule</title>
<path fill="none" stroke="black" d="M1930,-122.11C1930,-141.34 1930,-169 1930,-169 1930,-169 1263.71,-169 1263.71,-169"/>
<polygon fill="black" stroke="black" points="1263.71,-165.5 1253.71,-169 1263.71,-172.5 1263.71,-165.5"/>
</g>
<!-- CargaLLoteService -->
<g id="node5" class="node">
<title>CargaLLoteService</title>
<ellipse fill="#fdb462" stroke="black" cx="1728" cy="-104" rx="86.79" ry="18"/>
<text text-anchor="middle" x="1728" y="-99.8" font-family="Times,serif" font-size="14.00">CargaLLoteService</text>
</g>
<!-- CargaLLoteService&#45;&gt;AppModule -->
<g id="edge5" class="edge">
<title>CargaLLoteService&#45;&gt;AppModule</title>
<path fill="none" stroke="black" d="M1728,-122.3C1728,-140.27 1728,-165 1728,-165 1728,-165 1263.79,-165 1263.79,-165"/>
<polygon fill="black" stroke="black" points="1263.79,-161.5 1253.79,-165 1263.79,-168.5 1263.79,-161.5"/>
</g>
<!-- CarreraService -->
<g id="node6" class="node">
<title>CarreraService</title>
<ellipse fill="#fdb462" stroke="black" cx="1554" cy="-104" rx="68.87" ry="18"/>
<text text-anchor="middle" x="1554" y="-99.8" font-family="Times,serif" font-size="14.00">CarreraService</text>
</g>
<!-- CarreraService&#45;&gt;AppModule -->
<g id="edge6" class="edge">
<title>CarreraService&#45;&gt;AppModule</title>
<path fill="none" stroke="black" d="M1554,-122.03C1554,-138.4 1554,-160 1554,-160 1554,-160 1263.94,-160 1263.94,-160"/>
<polygon fill="black" stroke="black" points="1263.94,-156.5 1253.94,-160 1263.94,-163.5 1263.94,-156.5"/>
</g>
<!-- DescargaService -->
<g id="node7" class="node">
<title>DescargaService</title>
<ellipse fill="#fdb462" stroke="black" cx="1391" cy="-104" rx="75.82" ry="18"/>
<text text-anchor="middle" x="1391" y="-99.8" font-family="Times,serif" font-size="14.00">DescargaService</text>
</g>
<!-- DescargaService&#45;&gt;AppModule -->
<g id="edge7" class="edge">
<title>DescargaService&#45;&gt;AppModule</title>
<path fill="none" stroke="black" d="M1391,-122.19C1391,-137.18 1391,-156 1391,-156 1391,-156 1263.97,-156 1263.97,-156"/>
<polygon fill="black" stroke="black" points="1263.97,-152.5 1253.97,-156 1263.97,-159.5 1263.97,-152.5"/>
</g>
<!-- EstadisticasService -->
<g id="node8" class="node">
<title>EstadisticasService</title>
<ellipse fill="#fdb462" stroke="black" cx="1212" cy="-104" rx="85.66" ry="18"/>
<text text-anchor="middle" x="1212" y="-99.8" font-family="Times,serif" font-size="14.00">EstadisticasService</text>
</g>
<!-- EstadisticasService&#45;&gt;AppModule -->
<g id="edge8" class="edge">
<title>EstadisticasService&#45;&gt;AppModule</title>
<path fill="none" stroke="black" d="M1212,-122.11C1212,-122.11 1212,-140.99 1212,-140.99"/>
<polygon fill="black" stroke="black" points="1208.5,-140.99 1212,-150.99 1215.5,-140.99 1208.5,-140.99"/>
</g>
<!-- GetLibroService -->
<g id="node9" class="node">
<title>GetLibroService</title>
<ellipse fill="#fdb462" stroke="black" cx="1033" cy="-104" rx="75.28" ry="18"/>
<text text-anchor="middle" x="1033" y="-99.8" font-family="Times,serif" font-size="14.00">GetLibroService</text>
</g>
<!-- GetLibroService&#45;&gt;AppModule -->
<g id="edge9" class="edge">
<title>GetLibroService&#45;&gt;AppModule</title>
<path fill="none" stroke="black" d="M1033,-122.19C1033,-137.18 1033,-156 1033,-156 1033,-156 1160.03,-156 1160.03,-156"/>
<polygon fill="black" stroke="black" points="1160.03,-159.5 1170.03,-156 1160.03,-152.5 1160.03,-159.5"/>
</g>
<!-- LibroService -->
<g id="node10" class="node">
<title>LibroService</title>
<ellipse fill="#fdb462" stroke="black" cx="878" cy="-104" rx="61.39" ry="18"/>
<text text-anchor="middle" x="878" y="-99.8" font-family="Times,serif" font-size="14.00">LibroService</text>
</g>
<!-- LibroService&#45;&gt;AppModule -->
<g id="edge10" class="edge">
<title>LibroService&#45;&gt;AppModule</title>
<path fill="none" stroke="black" d="M878,-122.03C878,-138.4 878,-160 878,-160 878,-160 1160.04,-160 1160.04,-160"/>
<polygon fill="black" stroke="black" points="1160.04,-163.5 1170.04,-160 1160.04,-156.5 1160.04,-163.5"/>
</g>
<!-- LoginService -->
<g id="node11" class="node">
<title>LoginService</title>
<ellipse fill="#fdb462" stroke="black" cx="735" cy="-104" rx="63.12" ry="18"/>
<text text-anchor="middle" x="735" y="-99.8" font-family="Times,serif" font-size="14.00">LoginService</text>
</g>
<!-- LoginService&#45;&gt;AppModule -->
<g id="edge11" class="edge">
<title>LoginService&#45;&gt;AppModule</title>
<path fill="none" stroke="black" d="M735,-122.3C735,-140.27 735,-165 735,-165 735,-165 1160.09,-165 1160.09,-165"/>
<polygon fill="black" stroke="black" points="1160.09,-168.5 1170.09,-165 1160.09,-161.5 1160.09,-168.5"/>
</g>
<!-- MateriaService -->
<g id="node12" class="node">
<title>MateriaService</title>
<ellipse fill="#fdb462" stroke="black" cx="584" cy="-104" rx="70.04" ry="18"/>
<text text-anchor="middle" x="584" y="-99.8" font-family="Times,serif" font-size="14.00">MateriaService</text>
</g>
<!-- MateriaService&#45;&gt;AppModule -->
<g id="edge12" class="edge">
<title>MateriaService&#45;&gt;AppModule</title>
<path fill="none" stroke="black" d="M584,-122.11C584,-141.34 584,-169 584,-169 584,-169 1160.31,-169 1160.31,-169"/>
<polygon fill="black" stroke="black" points="1160.31,-172.5 1170.31,-169 1160.31,-165.5 1160.31,-172.5"/>
</g>
<!-- NacionalidadService -->
<g id="node13" class="node">
<title>NacionalidadService</title>
<ellipse fill="#fdb462" stroke="black" cx="405" cy="-104" rx="91.45" ry="18"/>
<text text-anchor="middle" x="405" y="-99.8" font-family="Times,serif" font-size="14.00">NacionalidadService</text>
</g>
<!-- NacionalidadService&#45;&gt;AppModule -->
<g id="edge13" class="edge">
<title>NacionalidadService&#45;&gt;AppModule</title>
<path fill="none" stroke="black" d="M405,-122.03C405,-142.77 405,-174 405,-174 405,-174 1160.31,-174 1160.31,-174"/>
<polygon fill="black" stroke="black" points="1160.31,-177.5 1170.31,-174 1160.31,-170.5 1160.31,-177.5"/>
</g>
<!-- SqlService -->
<g id="node14" class="node">
<title>SqlService</title>
<ellipse fill="#fdb462" stroke="black" cx="243" cy="-104" rx="52.74" ry="18"/>
<text text-anchor="middle" x="243" y="-99.8" font-family="Times,serif" font-size="14.00">SqlService</text>
</g>
<!-- SqlService&#45;&gt;AppModule -->
<g id="edge14" class="edge">
<title>SqlService&#45;&gt;AppModule</title>
<path fill="none" stroke="black" d="M243,-122.29C243,-144.21 243,-178 243,-178 243,-178 1160.05,-178 1160.05,-178"/>
<polygon fill="black" stroke="black" points="1160.05,-181.5 1170.05,-178 1160.05,-174.5 1160.05,-181.5"/>
</g>
<!-- UsuariosService -->
<g id="node15" class="node">
<title>UsuariosService</title>
<ellipse fill="#fdb462" stroke="black" cx="98" cy="-104" rx="74.13" ry="18"/>
<text text-anchor="middle" x="98" y="-99.8" font-family="Times,serif" font-size="14.00">UsuariosService</text>
</g>
<!-- UsuariosService&#45;&gt;AppModule -->
<g id="edge15" class="edge">
<title>UsuariosService&#45;&gt;AppModule</title>
<path fill="none" stroke="black" d="M98,-122.32C98,-145.66 98,-183 98,-183 98,-183 1160.03,-183 1160.03,-183"/>
<polygon fill="black" stroke="black" points="1160.03,-186.5 1170.03,-183 1160.03,-179.5 1160.03,-186.5"/>
</g>
</g>
</svg>
